<svg xmlns="http://www.w3.org/2000/svg" width="1600" height="600" viewBox="0 0 1600 600">
  <defs>
    <linearGradient id="g1" x1="0" y1="0" x2="1" y2="1">
      <stop offset="0" stop-color="#0b1220"/>
      <stop offset="0.55" stop-color="#163a9a"/>
      <stop offset="1" stop-color="#2563eb"/>
    </linearGradient>
    <radialGradient id="r1" cx="25%" cy="45%" r="70%">
      <stop offset="0" stop-color="#22c55e" stop-opacity="0.35"/>
      <stop offset="1" stop-color="#22c55e" stop-opacity="0"/>
    </radialGradient>
  </defs>

  <rect width="1600" height="600" fill="url(#g1)"/>
  <rect width="1600" height="600" fill="url(#r1)"/>

  <circle cx="1350" cy="120" r="160" fill="#ffffff" opacity="0.07"/>
  <circle cx="1320" cy="140" r="90" fill="#ffffff" opacity="0.07"/>
  <circle cx="250" cy="500" r="220" fill="#ffffff" opacity="0.05"/>

  <path d="M1100 520 C 1000 420, 920 360, 780 320 C 620 275, 540 220, 460 130 C 400 60, 320 40, 220 60"
        fill="none" stroke="#ffffff" stroke-opacity="0.08" stroke-width="10" stroke-linecap="round"/>

  <path d="M120 120 C 220 90, 340 120, 420 210 C 500 300, 610 310, 720 270"
        fill="none" stroke="#ffffff" stroke-opacity="0.10" stroke-width="6" stroke-linecap="round"/>

  <g opacity="0.10" stroke="#ffffff" fill="none">
    <rect x="1125" y="285" width="320" height="220" rx="26" stroke-width="6"/>
    <path d="M1200 330 h170" stroke-width="6" stroke-linecap="round"/>
    <path d="M1200 370 h130" stroke-width="6" stroke-linecap="round"/>
    <path d="M1200 410 h90"  stroke-width="6" stroke-linecap="round"/>
    <circle cx="1185" cy="492" r="12" stroke-width="6"/>
    <circle cx="1390" cy="492" r="12" stroke-width="6"/>
  </g>
</svg>
