<svg xmlns="http://www.w3.org/2000/svg" width="1600" height="600" viewBox="0 0 1600 600">
  <defs>
    <linearGradient id="g2" x1="0" y1="0" x2="1" y2="0">
      <stop offset="0" stop-color="#020617"/>
      <stop offset="0.45" stop-color="#1e293b"/>
      <stop offset="1" stop-color="#0ea5e9"/>
    </linearGradient>
    <radialGradient id="r2" cx="70%" cy="40%" r="65%">
      <stop offset="0" stop-color="#facc15" stop-opacity="0.35"/>
      <stop offset="1" stop-color="#facc15" stop-opacity="0"/>
    </radialGradient>
  </defs>

  <rect width="1600" height="600" fill="url(#g2)"/>
  <rect width="1600" height="600" fill="url(#r2)"/>

  <path d="M0 430 C 230 350, 440 500, 660 430 C 850 370, 1030 280, 1280 340 C 1430 380, 1510 460, 1600 470 L 1600 600 L 0 600 Z"
        fill="#ffffff" opacity="0.06"/>

  <path d="M0 390 C 250 310, 470 440, 700 390 C 930 340, 1080 230, 1330 285 C 1470 315, 1540 355, 1600 360"
        fill="none" stroke="#ffffff" stroke-opacity="0.10" stroke-width="7" stroke-linecap="round"/>

  <g opacity="0.10" fill="#ffffff">
    <circle cx="1180" cy="170" r="5"/>
    <circle cx="1220" cy="205" r="4"/>
    <circle cx="1260" cy="165" r="3"/>
    <circle cx="1310" cy="200" r="5"/>
    <circle cx="1360" cy="175" r="4"/>
    <circle cx="1410" cy="210" r="3"/>
  </g>

  <g opacity="0.12" stroke="#ffffff" fill="none">
    <path d="M1140 470 h300" stroke-width="8" stroke-linecap="round"/>
    <path d="M1180 430 h220" stroke-width="8" stroke-linecap="round"/>
    <path d="M1215 390 h150" stroke-width="8" stroke-linecap="round"/>
  </g>
</svg>
